<mxfile host="app.diagrams.net" agent="Mozilla/5.0 (Windows NT 10.0; Win64; x64) AppleWebKit/537.36 (KHTML, like Gecko) Chrome/132.0.0.0 Safari/537.36" version="26.0.10">
  <diagram name="Página-1" id="aLXS-qwwoDJ4eSRHVB6F">
    <mxGraphModel dx="1877" dy="565" grid="1" gridSize="10" guides="1" tooltips="1" connect="1" arrows="1" fold="1" page="1" pageScale="1" pageWidth="827" pageHeight="1169" math="0" shadow="0">
      <root>
        <mxCell id="0" />
        <mxCell id="1" parent="0" />
        <mxCell id="zuaTBYUaocv20enxaQEq-1" value="inicio" style="rounded=1;whiteSpace=wrap;html=1;" vertex="1" parent="1">
          <mxGeometry x="354" y="30" width="120" height="60" as="geometry" />
        </mxCell>
        <mxCell id="zuaTBYUaocv20enxaQEq-10" style="edgeStyle=orthogonalEdgeStyle;rounded=0;orthogonalLoop=1;jettySize=auto;html=1;entryX=0.5;entryY=0;entryDx=0;entryDy=0;" edge="1" parent="1" source="zuaTBYUaocv20enxaQEq-2" target="zuaTBYUaocv20enxaQEq-9">
          <mxGeometry relative="1" as="geometry" />
        </mxCell>
        <mxCell id="zuaTBYUaocv20enxaQEq-2" value="n1" style="html=1;strokeWidth=2;shape=manualInput;whiteSpace=wrap;rounded=1;size=26;arcSize=11;" vertex="1" parent="1">
          <mxGeometry x="364" y="150" width="100" height="60" as="geometry" />
        </mxCell>
        <mxCell id="zuaTBYUaocv20enxaQEq-3" style="edgeStyle=orthogonalEdgeStyle;rounded=0;orthogonalLoop=1;jettySize=auto;html=1;entryX=0.492;entryY=0.183;entryDx=0;entryDy=0;entryPerimeter=0;" edge="1" parent="1" source="zuaTBYUaocv20enxaQEq-1" target="zuaTBYUaocv20enxaQEq-2">
          <mxGeometry relative="1" as="geometry" />
        </mxCell>
        <mxCell id="zuaTBYUaocv20enxaQEq-14" value="" style="edgeStyle=orthogonalEdgeStyle;rounded=0;orthogonalLoop=1;jettySize=auto;html=1;" edge="1" parent="1" source="zuaTBYUaocv20enxaQEq-9" target="zuaTBYUaocv20enxaQEq-13">
          <mxGeometry relative="1" as="geometry" />
        </mxCell>
        <mxCell id="zuaTBYUaocv20enxaQEq-17" value="" style="edgeStyle=orthogonalEdgeStyle;rounded=0;orthogonalLoop=1;jettySize=auto;html=1;" edge="1" parent="1" source="zuaTBYUaocv20enxaQEq-9" target="zuaTBYUaocv20enxaQEq-16">
          <mxGeometry relative="1" as="geometry" />
        </mxCell>
        <mxCell id="zuaTBYUaocv20enxaQEq-9" value="n1 !=0" style="rhombus;whiteSpace=wrap;html=1;" vertex="1" parent="1">
          <mxGeometry x="374" y="270" width="80" height="80" as="geometry" />
        </mxCell>
        <mxCell id="zuaTBYUaocv20enxaQEq-13" value="&quot;o numero precisa ser diferente de zero&quot;" style="shape=document;whiteSpace=wrap;html=1;boundedLbl=1;" vertex="1" parent="1">
          <mxGeometry x="570" y="270" width="120" height="80" as="geometry" />
        </mxCell>
        <mxCell id="zuaTBYUaocv20enxaQEq-15" style="edgeStyle=orthogonalEdgeStyle;rounded=0;orthogonalLoop=1;jettySize=auto;html=1;entryX=0.653;entryY=-0.022;entryDx=0;entryDy=0;entryPerimeter=0;" edge="1" parent="1" source="zuaTBYUaocv20enxaQEq-2" target="zuaTBYUaocv20enxaQEq-13">
          <mxGeometry relative="1" as="geometry" />
        </mxCell>
        <mxCell id="zuaTBYUaocv20enxaQEq-20" value="" style="edgeStyle=orthogonalEdgeStyle;rounded=0;orthogonalLoop=1;jettySize=auto;html=1;" edge="1" parent="1" source="zuaTBYUaocv20enxaQEq-16" target="zuaTBYUaocv20enxaQEq-19">
          <mxGeometry relative="1" as="geometry" />
        </mxCell>
        <mxCell id="zuaTBYUaocv20enxaQEq-22" value="" style="edgeStyle=orthogonalEdgeStyle;rounded=0;orthogonalLoop=1;jettySize=auto;html=1;" edge="1" parent="1" source="zuaTBYUaocv20enxaQEq-16" target="zuaTBYUaocv20enxaQEq-21">
          <mxGeometry relative="1" as="geometry" />
        </mxCell>
        <mxCell id="zuaTBYUaocv20enxaQEq-16" value="n1 &amp;gt;0" style="rhombus;whiteSpace=wrap;html=1;" vertex="1" parent="1">
          <mxGeometry x="190" y="400" width="80" height="80" as="geometry" />
        </mxCell>
        <mxCell id="zuaTBYUaocv20enxaQEq-30" style="edgeStyle=orthogonalEdgeStyle;rounded=0;orthogonalLoop=1;jettySize=auto;html=1;entryX=0;entryY=0.5;entryDx=0;entryDy=0;" edge="1" parent="1" source="zuaTBYUaocv20enxaQEq-19" target="zuaTBYUaocv20enxaQEq-29">
          <mxGeometry relative="1" as="geometry">
            <mxPoint x="40" y="650" as="targetPoint" />
            <Array as="points">
              <mxPoint x="40" y="580" />
              <mxPoint x="41" y="580" />
              <mxPoint x="41" y="640" />
            </Array>
          </mxGeometry>
        </mxCell>
        <mxCell id="zuaTBYUaocv20enxaQEq-19" value="&quot;positivo&quot;" style="shape=document;whiteSpace=wrap;html=1;boundedLbl=1;" vertex="1" parent="1">
          <mxGeometry x="-20" y="400" width="120" height="80" as="geometry" />
        </mxCell>
        <mxCell id="zuaTBYUaocv20enxaQEq-32" style="edgeStyle=orthogonalEdgeStyle;rounded=0;orthogonalLoop=1;jettySize=auto;html=1;entryX=1;entryY=0.5;entryDx=0;entryDy=0;" edge="1" parent="1" source="zuaTBYUaocv20enxaQEq-21" target="zuaTBYUaocv20enxaQEq-29">
          <mxGeometry relative="1" as="geometry">
            <mxPoint x="440" y="640" as="targetPoint" />
            <Array as="points">
              <mxPoint x="440" y="640" />
            </Array>
          </mxGeometry>
        </mxCell>
        <mxCell id="zuaTBYUaocv20enxaQEq-21" value="&quot;negativo&quot;" style="shape=document;whiteSpace=wrap;html=1;boundedLbl=1;" vertex="1" parent="1">
          <mxGeometry x="380" y="400" width="120" height="80" as="geometry" />
        </mxCell>
        <mxCell id="zuaTBYUaocv20enxaQEq-23" value="sim" style="text;html=1;align=center;verticalAlign=middle;whiteSpace=wrap;rounded=0;" vertex="1" parent="1">
          <mxGeometry x="280" y="280" width="60" height="30" as="geometry" />
        </mxCell>
        <mxCell id="zuaTBYUaocv20enxaQEq-24" value="não" style="text;html=1;align=center;verticalAlign=middle;whiteSpace=wrap;rounded=0;" vertex="1" parent="1">
          <mxGeometry x="474" y="280" width="60" height="30" as="geometry" />
        </mxCell>
        <mxCell id="zuaTBYUaocv20enxaQEq-27" value="sim" style="text;html=1;align=center;verticalAlign=middle;whiteSpace=wrap;rounded=0;" vertex="1" parent="1">
          <mxGeometry x="120" y="410" width="60" height="30" as="geometry" />
        </mxCell>
        <mxCell id="zuaTBYUaocv20enxaQEq-28" value="não" style="text;html=1;align=center;verticalAlign=middle;whiteSpace=wrap;rounded=0;" vertex="1" parent="1">
          <mxGeometry x="294" y="410" width="60" height="30" as="geometry" />
        </mxCell>
        <mxCell id="zuaTBYUaocv20enxaQEq-29" value="fim" style="rounded=1;whiteSpace=wrap;html=1;" vertex="1" parent="1">
          <mxGeometry x="174" y="610" width="120" height="60" as="geometry" />
        </mxCell>
      </root>
    </mxGraphModel>
  </diagram>
</mxfile>
